<svg id="Layer_1" viewBox="0 0 200 200"><defs><style>.cls-1{fill:#ffde17;}.cls-2{fill:#be1e2d;}.cls-3{fill:#1c75bc;}</style></defs><path class="cls-1" d="M127.24,28l64.4,117.45a31.06,31.06,0,0,1-27.23,46H35.59a31.06,31.06,0,0,1-27.24-46L72.76,28C84.55,6.5,115.45,6.5,127.24,28Z"/><path class="cls-2" d="M161.25,196.14H38.75c-12.76,0-24-7.85-30.15-21a45.73,45.73,0,0,1,1.26-41.1L71.11,22.36C77.46,10.78,88.26,3.86,100,3.86s22.54,6.92,28.89,18.5l61.25,111.69a45.73,45.73,0,0,1,1.26,41.1C185.28,188.29,174,196.14,161.25,196.14ZM100,13.23c-9,0-17.3,5.31-22.18,14.19L16.58,139.11a35.09,35.09,0,0,0-1,31.55C20.3,180.75,29,186.77,38.75,186.77h122.5c9.79,0,18.45-6,23.14-16.11a35.09,35.09,0,0,0-1-31.55L122.18,27.42h0C117.3,18.54,109,13.23,100,13.23Z"/><path class="cls-3" d="M99.88,172.75h63.77c7.51,0,13.6-7.14,13.6-15.95h0c0-8.81-6.09-16-13.6-16H114.83V127.46h11c7.51,0,13.6-7.14,13.6-15.95h0c0-8.81-6.09-16-13.6-16h-11V82.18h48.82c7.51,0,13.6-7.15,13.6-16s-6.09-15.95-13.6-15.95H99.88Z"/><path class="cls-2" d="M100.15,50.27H36.38c-7.51,0-13.6,7.14-13.6,15.95s6.09,16,13.6,16H85.19V95.56h-11c-7.51,0-13.6,7.14-13.6,16h0c0,8.81,6.09,15.95,13.6,15.95h11v13.38H36.38c-7.51,0-13.6,7.15-13.6,16h0c0,8.81,6.09,15.95,13.6,15.95h63.77Z"/></svg>